<?xml version="1.0" standalone="no"?>
<!DOCTYPE svg PUBLIC "-//W3C//DTD SVG 20010904//EN"
 "http://www.w3.org/TR/2001/REC-SVG-20010904/DTD/svg10.dtd">
<svg version="1.0" xmlns="http://www.w3.org/2000/svg"
 width="225.000000pt" height="256.000000pt" viewBox="0 0 225.000000 256.000000"
 preserveAspectRatio="xMidYMid meet">

<g transform="translate(0.000000,256.000000) scale(0.100000,-0.100000)"
fill="#000000" stroke="none">
<path d="M300 2544 c-142 -38 -248 -147 -285 -290 -14 -54 -15 -175 -13 -996
l3 -934 38 -76 c43 -88 107 -152 195 -195 l57 -28 830 0 830 0 57 28 c117 57
201 164 228 287 8 40 10 302 8 980 -3 919 -3 925 -24 977 -45 110 -134 197
-244 240 -42 17 -104 18 -835 20 -672 2 -798 0 -845 -13z m1702 -71 c82 -39
145 -100 184 -179 l29 -59 0 -825 0 -825 -28 -57 c-36 -74 -128 -159 -204
-190 l-58 -23 -800 0 -800 0 -58 23 c-76 31 -168 116 -204 190 l-28 57 0 825
0 825 28 57 c49 99 131 169 242 204 31 10 212 12 835 11 l795 -2 67 -32z
m-1951 -1974 c22 -54 112 -137 186 -172 l68 -32 820 0 820 0 68 32 c74 35 164
118 186 172 19 45 31 38 31 -16 0 -196 -79 -335 -228 -406 l-67 -32 -810 0
-810 0 -67 32 c-151 71 -227 207 -228 406 0 54 12 61 31 16z"/>
<path d="M410 1853 c1 -5 67 -242 148 -528 l147 -520 85 -3 86 -3 11 43 c124
473 238 887 243 881 4 -5 63 -214 131 -465 l123 -458 83 0 c69 0 82 3 87 18
41 141 286 1025 286 1032 0 6 -33 10 -78 10 l-78 0 -134 -476 c-74 -262 -137
-470 -139 -463 -3 8 -62 221 -131 474 -122 446 -126 460 -151 463 -24 3 -26
-1 -61 -130 -200 -740 -222 -819 -228 -802 -4 11 -65 225 -136 477 l-128 457
-83 0 c-46 0 -83 -3 -83 -7z"/>
</g>
</svg>
