<svg width="1440" height="544" viewBox="0 0 1440 544" fill="none" xmlns="http://www.w3.org/2000/svg">
<path fill-rule="evenodd" clip-rule="evenodd" d="M1047.64 304.62C1256.56 324.125 1440 99.0666 1440 19.0458V39.0458C1440 119.067 1256.56 344.125 1047.64 324.62C949.543 315.462 914.473 383.809 882.264 446.581C845.871 517.506 813.13 581.315 697.258 518.17C548.202 436.942 488.527 456.794 405.933 484.272C367.495 497.06 324.093 511.499 264.408 518.17C114.06 534.975 25.4911 434.482 0 382.135V362.135C25.4911 414.482 114.06 514.975 264.408 498.17C324.093 491.499 367.495 477.06 405.933 464.272L405.933 464.272C488.527 436.794 548.202 416.942 697.258 498.17C813.13 561.315 845.871 497.506 882.264 426.581C914.473 363.809 949.543 295.462 1047.64 304.62Z" fill="#F0A500"/>
<path fill-rule="evenodd" clip-rule="evenodd" d="M-1 343.135C24.4911 395.482 113.06 495.975 263.408 479.17C323.093 472.499 366.495 458.06 404.933 445.272C487.527 417.794 547.202 397.942 696.258 479.17C812.13 542.315 844.871 478.506 881.264 407.581C913.473 344.809 948.543 276.462 1046.64 285.62C1255.56 305.125 1439 80.0666 1439 0.0457764V20.0458C1439 100.067 1255.56 325.125 1046.64 305.62C948.543 296.462 913.473 364.809 881.264 427.581C844.871 498.506 812.13 562.315 696.258 499.17C547.202 417.942 487.527 437.794 404.933 465.272C366.495 478.06 323.093 492.499 263.408 499.17C113.06 515.975 24.4911 415.482 -1 363.135V343.135Z" fill="#2C3236"/>
</svg>
